<?xml version="1.0" encoding="utf-8"?>
<!-- Generator: Adobe Illustrator 17.1.0, SVG Export Plug-In . SVG Version: 6.00 Build 0)  -->
<!DOCTYPE svg PUBLIC "-//W3C//DTD SVG 1.1//EN" "http://www.w3.org/Graphics/SVG/1.1/DTD/svg11.dtd">
<svg version="1.1" id="Layer_1" xmlns="http://www.w3.org/2000/svg" xmlns:xlink="http://www.w3.org/1999/xlink" x="0px" y="0px"
	 width="18px" height="18px" viewBox="0 0 18 18" enable-background="new 0 0 18 18" xml:space="preserve">
<path id="path-1" fill="#ffffff" d="M6.7,11.6c-2.7,0-4.9-2.2-4.9-4.9C1.8,4,4,1.8,6.7,1.8s4.9,2.2,4.9,4.9
	C11.6,9.4,9.4,11.6,6.7,11.6z M17.9,16.1l-5.6-5.6C13,9.3,13.4,8,13.4,6.7c0-1.8-0.7-3.5-2-4.7c-1.3-1.3-2.9-2-4.7-2
	C4.9,0,3.2,0.7,2,2S0,4.9,0,6.7s0.7,3.5,2,4.7c1.3,1.3,2.9,2,4.7,2c1.4,0,2.7-0.4,3.8-1.2l5.6,5.6c0.2,0.2,0.5,0.1,0.8-0.1l0.9-0.9
	C18,16.6,18.1,16.2,17.9,16.1z"/>
</svg>
